<svg width="512" height="512" viewBox="0 0 512 512" fill="none" xmlns="http://www.w3.org/2000/svg">
  <!-- 背景漸變 -->
  <defs>
    <linearGradient id="backgroundGradient" x1="0%" y1="0%" x2="100%" y2="100%">
      <stop offset="0%" style="stop-color:#8b5cf6;stop-opacity:1" />
      <stop offset="100%" style="stop-color:#3b82f6;stop-opacity:1" />
    </linearGradient>
    <linearGradient id="cardGradient" x1="0%" y1="0%" x2="100%" y2="100%">
      <stop offset="0%" style="stop-color:#ffffff;stop-opacity:0.95" />
      <stop offset="100%" style="stop-color:#f8fafc;stop-opacity:0.9" />
    </linearGradient>
    <filter id="shadow" x="-20%" y="-20%" width="140%" height="140%">
      <feDropShadow dx="0" dy="8" stdDeviation="12" flood-color="#000000" flood-opacity="0.15"/>
    </filter>
  </defs>
  
  <!-- 外圓背景 -->
  <circle cx="256" cy="256" r="240" fill="url(#backgroundGradient)" filter="url(#shadow)"/>
  
  <!-- 卡片背景 -->
  <rect x="96" y="180" width="320" height="200" rx="24" fill="url(#cardGradient)" opacity="0.95"/>
  
  <!-- 集點圓圈 -->
  <!-- 第一排 -->
  <circle cx="150" cy="220" r="16" fill="#10b981" opacity="0.9"/>
  <circle cx="200" cy="220" r="16" fill="#10b981" opacity="0.9"/>
  <circle cx="250" cy="220" r="16" fill="#10b981" opacity="0.9"/>
  <circle cx="300" cy="220" r="16" fill="#f59e0b" opacity="0.7" stroke="#f59e0b" stroke-width="2" stroke-dasharray="4,4"/>
  <circle cx="350" cy="220" r="16" fill="none" stroke="#d1d5db" stroke-width="2" stroke-dasharray="4,4"/>
  
  <!-- 第二排 -->
  <circle cx="175" cy="270" r="16" fill="#10b981" opacity="0.9"/>
  <circle cx="225" cy="270" r="16" fill="#10b981" opacity="0.9"/>
  <circle cx="275" cy="270" r="16" fill="none" stroke="#d1d5db" stroke-width="2" stroke-dasharray="4,4"/>
  <circle cx="325" cy="270" r="16" fill="none" stroke="#d1d5db" stroke-width="2" stroke-dasharray="4,4"/>
  
  <!-- 打勾符號在已完成的圓圈中 -->
  <path d="M142 220 L148 226 L158 214" stroke="#ffffff" stroke-width="3" fill="none" stroke-linecap="round" stroke-linejoin="round"/>
  <path d="M192 220 L198 226 L208 214" stroke="#ffffff" stroke-width="3" fill="none" stroke-linecap="round" stroke-linejoin="round"/>
  <path d="M242 220 L248 226 L258 214" stroke="#ffffff" stroke-width="3" fill="none" stroke-linecap="round" stroke-linejoin="round"/>
  <path d="M167 270 L173 276 L183 264" stroke="#ffffff" stroke-width="3" fill="none" stroke-linecap="round" stroke-linejoin="round"/>
  <path d="M217 270 L223 276 L233 264" stroke="#ffffff" stroke-width="3" fill="none" stroke-linecap="round" stroke-linejoin="round"/>
  
  <!-- 進度條 -->
  <rect x="120" y="320" width="272" height="8" rx="4" fill="#e5e7eb" opacity="0.6"/>
  <rect x="120" y="320" width="136" height="8" rx="4" fill="#10b981" opacity="0.8"/>
  
  <!-- 星星裝飾 -->
  <path d="M380 140 L385 150 L395 150 L387 157 L390 167 L380 160 L370 167 L373 157 L365 150 L375 150 Z" fill="#fbbf24" opacity="0.8"/>
  <path d="M420 320 L423 327 L430 327 L425 332 L427 339 L420 335 L413 339 L415 332 L410 327 L417 327 Z" fill="#fbbf24" opacity="0.6"/>
  
  <!-- 心理標誌 (簡化的腦部圖案) -->
  <path d="M256 120 C280 120 300 140 300 164 C300 180 290 195 275 205 C265 210 245 210 235 205 C220 195 210 180 210 164 C210 140 230 120 256 120 Z" fill="#ffffff" opacity="0.9"/>
  <circle cx="245" cy="150" r="4" fill="#8b5cf6"/>
  <circle cx="267" cy="150" r="4" fill="#8b5cf6"/>
  <path d="M240 170 Q256 180 272 170" stroke="#8b5cf6" stroke-width="2" fill="none" stroke-linecap="round"/>
</svg>